PathFileType	4	(X/Y/Z)	C:\Users\Basilio\Documents\Thesis Gigler\squatting_fais\c3dfiles\047\SLS_pre_back3\markers_experimental.trc
DataRate	CameraRate	NumFrames	NumMarkers	Units	OrigDataRate	OrigDataStartFrame	OrigNumFrames
200.000000	200.000000	4	61	mm	200.000000	637	1274
Frame#	Time	FHD			LBHD			RBHD			C7			T10			CLAV			LSHO			LUUPA			LMUPA			LDUPA			LLEP			LMEP			LRAD			LUL			LRFIN			RSHO			RUPA1			RMUPA			RDUPA			RLEP			RMEP			RRAD			RUL			RUFIN			LASI			RASI			USACR			LSACR			RSACR			LTHI1			LTHI2			LTHI3			LTHI4			LLFC			LTIB1			LTIB2			LTIB3			LTIB4			LLMAL			LMMAL			LMT1			LMT2			LMT5			RTHI			RTHI2			RTHI3			RTHI4			RLFC			RMFC			RTIB1			RTIB2			RTIB3			RTIB4			RLMAL			RMMAL			RHEE			RMT1			RMT2			RMT5			LMFC			*60			
		X1	Y1	Z1	X2	Y2	Z2	X3	Y3	Z3	X4	Y4	Z4	X5	Y5	Z5	X6	Y6	Z6	X7	Y7	Z7	X8	Y8	Z8	X9	Y9	Z9	X10	Y10	Z10	X11	Y11	Z11	X12	Y12	Z12	X13	Y13	Z13	X14	Y14	Z14	X15	Y15	Z15	X16	Y16	Z16	X17	Y17	Z17	X18	Y18	Z18	X19	Y19	Z19	X20	Y20	Z20	X21	Y21	Z21	X22	Y22	Z22	X23	Y23	Z23	X24	Y24	Z24	X25	Y25	Z25	X26	Y26	Z26	X27	Y27	Z27	X28	Y28	Z28	X29	Y29	Z29	X30	Y30	Z30	X31	Y31	Z31	X32	Y32	Z32	X33	Y33	Z33	X34	Y34	Z34	X35	Y35	Z35	X36	Y36	Z36	X37	Y37	Z37	X38	Y38	Z38	X39	Y39	Z39	X40	Y40	Z40	X41	Y41	Z41	X42	Y42	Z42	X43	Y43	Z43	X44	Y44	Z44	X45	Y45	Z45	X46	Y46	Z46	X47	Y47	Z47	X48	Y48	Z48	X49	Y49	Z49	X50	Y50	Z50	X51	Y51	Z51	X52	Y52	Z52	X53	Y53	Z53	X54	Y54	Z54	X55	Y55	Z55	X56	Y56	Z56	X57	Y57	Z57	X58	Y58	Z58	X59	Y59	Z59	X60	Y60	Z60	X61	Y61	Z61	

638	3.185	66.3209686279297	1362.857666015625	-1140.980590820313	-114.9431381225586	1348.480590820313	-1163.833740234375	-89.01795196533205	1349.862670898438	-1017.291442871094	-166.2827453613282	1212.7431640625	-1084.519775390625	-359.3984375000001	991.127136230469	-1021.998413085938	-65.16992187500001	1089.98876953125	-1109.345336914063	-122.0067672729492	1133.209838867188	-1258.347045898438	-99.63264465332034	983.8709106445315	-1362.638793945313	-51.1958351135254	999.421325683594	-1361.186767578125	-45.56471633911134	941.4116210937502	-1377.285766601563	22.77355384826661	914.2758789062502	-1385.443237304688	2.793278455734253	863.9758911132815	-1312.169189453125	213.0963439941407	978.0832519531252	-1223.463745117188	236.9376068115235	905.9756469726565	-1219.721313476563	305.1778564453126	971.7027587890627	-1217.517944335938	-54.29215240478517	1148.689819335938	-960.9799804687502	10.14127445220947	1001.393737792969	-857.4421997070315	49.97571182250978	1010.363952636719	-884.7610473632815	60.65256500244142	953.7832031250002	-865.7202148437502	125.7160873413086	921.334167480469	-888.5266723632815	78.51357269287111	864.1889648437502	-937.0275878906252	nan	nan	nan	287.0937805175782	913.1606445312502	-1097.371704101563	280.2772216796876	998.6665039062502	-1133.7802734375	-323.1362915039063	727.5922851562501	-1093.258911132813	-318.5941772460938	737.1551513671876	-864.966003417969	-453.6516723632814	878.5442504882815	-986.5706176757815	-476.3876342773439	853.6946411132815	-1012.999816894531	-470.8142700195314	854.5653076171877	-954.3887329101565	-369.1429443359376	638.6868286132814	-1175.895751953125	-288.0305480957032	618.0538940429689	-1178.4921875	-258.1997985839844	654.3847656250001	-1163.7080078125	-264.7418823242188	562.9417114257814	-1183.448486328125	-154.7870788574219	440.0211791992189	-1162.160522460938	-180.5681457519532	290.8121337890626	-1041.337646484375	-208.2960662841797	242.2329864501954	-1106.886474609375	-197.1745758056641	239.0967559814454	-1061.6357421875	-249.9806365966797	187.6636657714844	-1024.25	-342.5059509277344	120.3133621215821	-1063.355712890625	-316.4833984375001	141.8495788574219	-976.1927490234377	-207.7726593017579	64.1300735473633	-991.5522460937502	-209.4846496582032	60.02781677246095	-1036.570678710938	-258.8443908691407	49.63198471069337	-1080.244506835938	-407.3666076660157	582.5498046875001	-770.1361083984377	-366.2127990722657	529.5711669921876	-769.1131591796877	-337.3068237304688	530.4191284179689	-783.102233886719	-389.6501464843751	448.8254699707032	-764.3159179687501	-386.0661010742189	318.4567260742188	-784.1931762695315	-397.1158752441407	296.3197021484376	-914.6636352539065	-486.5268859863282	250.5247497558594	-784.8813476562502	-569.4039306640626	311.4731445312501	-742.0040283203126	-565.5820312500001	265.1271667480469	-749.4530029296876	-616.8104248046876	246.8654479980469	-775.423034667969	-768.6465454101565	301.4655456542969	-732.3233642578126	-760.8119506835939	262.5697326660157	-816.7884521484377	-792.704040527344	354.1287231445313	-791.1943359375002	-848.488464355469	153.8897399902344	-787.696960449219	-845.4075927734377	150.035400390625	-739.5212402343751	-865.0122680664065	208.7818603515626	-693.6485595703126	-118.3275451660157	451.9771423339845	-1039.589111328125	nan	nan	nan	
639	3.19	66.98626708984376	1361.732788085938	-1140.775268554688	-113.6570663452149	1347.033935546875	-1164.181640625	-88.85959625244142	1348.603149414063	-1016.759643554688	-165.7388153076172	1211.5810546875	-1084.548583984375	-358.9456176757813	990.7219238281252	-1022.007080078125	-64.62710571289064	1089.105224609375	-1109.624389648438	-121.3953323364258	1132.337158203125	-1258.6376953125	-99.44285583496097	982.7702636718752	-1362.746826171875	-50.93690109252931	998.187927246094	-1361.33740234375	-44.98162078857423	940.1223754882815	-1377.460083007813	22.82432556152344	913.078796386719	-1385.636596679688	2.998621463775635	862.886169433594	-1312.580810546875	213.4748840332032	976.5496826171877	-1223.693359375	237.2532043457032	904.615417480469	-1219.92626953125	305.7724914550782	970.067810058594	-1217.869262695313	-53.5939407348633	1147.524780273438	-960.9614257812502	10.54810523986817	1000.320190429688	-857.6965332031252	50.29659652709962	1009.119445800781	-884.8114013671877	60.86866760253908	952.5029296875002	-865.883728027344	125.9927291870117	920.2229003906252	-888.7440185546877	78.51853942871095	862.734802246094	-937.1778564453127	nan	nan	nan	287.4720153808594	911.7626953125002	-1097.745971679688	280.8527526855469	997.014831542969	-1134.15673828125	-323.6154785156251	726.5682983398439	-1093.22998046875	-318.5749816894532	736.4205322265626	-864.9758911132815	-453.4390258789064	878.144714355469	-986.467956542969	-476.2725219726564	853.177429199219	-1012.791320800781	-470.6462707519532	854.2337036132815	-954.3017578125002	-369.2737121582032	638.4882202148439	-1175.884887695313	-288.1152343750001	617.8476562500001	-1178.463500976563	-258.3949584960938	654.1585693359376	-1163.588012695313	-264.7655639648438	562.7789916992189	-1183.526245117188	-154.750473022461	439.8547363281251	-1162.34814453125	-180.524398803711	290.6406250000001	-1041.30859375	-207.9960327148438	242.3110656738282	-1107.052124023438	-197.126449584961	239.1565093994141	-1061.668823242188	-249.8421478271485	187.6906127929688	-1024.344116210938	-342.4235229492188	120.2779312133789	-1063.4111328125	-316.4289855957032	141.8521423339844	-976.1802978515627	-207.9585723876954	64.04380035400392	-991.5992431640627	-209.7094268798829	60.43703460693361	-1036.481079101563	-258.8481140136719	49.54927825927736	-1080.281616210938	-407.3463134765626	582.2688598632814	-769.952819824219	-366.1706237792969	529.0962524414064	-769.1004638671877	-337.3434448242188	529.5595703125001	-783.563659667969	-389.7360839843751	448.4578857421876	-764.9815673828126	-386.3437805175782	317.8501586914063	-784.305847167969	-397.9272460937501	295.9455261230469	-915.0041503906252	-486.8208312988282	249.9091949462891	-784.8967895507815	-569.8465576171876	311.1201171875001	-741.9590454101564	-566.0344238281251	264.7573852539063	-749.8217773437501	-617.4990234375001	246.4949951171876	-775.1575927734377	-768.9265747070315	301.2283325195313	-732.7456665039064	-761.2117309570314	262.1885681152344	-816.988464355469	-793.123718261719	353.7570190429688	-791.310485839844	-849.1114501953127	153.3763427734375	-787.7194824218752	-846.012634277344	149.3389739990235	-738.5587768554689	-865.7257080078127	208.3963165283204	-693.6376342773439	-118.3284378051758	451.8901977539064	-1039.747802734375	nan	nan	nan	
640	3.195	67.54780578613283	1360.462524414063	-1140.984985351563	-113.153190612793	1346.015869140625	-1164.341552734375	-88.10015106201173	1347.795776367188	-1017.433227539063	-164.8775177001953	1210.846801757813	-1084.643432617188	-358.0394287109376	989.922302246094	-1021.63427734375	-63.84070587158205	1088.272827148438	-1110.000854492188	-120.7864303588867	1131.012084960938	-1258.636840820313	-99.17813110351565	981.6726684570315	-1362.718139648438	-50.00332260131837	996.776306152344	-1361.438354492188	-45.21184158325196	939.050964355469	-1377.433227539063	23.09515190124512	911.7149047851565	-1385.720825195313	3.278721809387208	861.960876464844	-1313.138671875	213.8851928710938	974.9873657226565	-1224.121826171875	237.4023742675782	902.880065917969	-1220.166625976563	305.6038208007813	967.371032714844	-1217.487060546875	-53.14286422729494	1146.680786132813	-961.0969238281252	10.99898910522461	999.1909179687502	-857.9309692382815	50.69761657714845	1007.862609863281	-885.0337524414065	61.22942352294923	951.3857421875002	-865.987243652344	126.3086471557617	918.7122802734377	-888.9028320312502	78.82559967041017	861.7751464843752	-937.4590454101565	nan	nan	nan	287.8547973632813	910.0769653320315	-1097.980834960938	281.5260009765626	995.5205688476565	-1134.421752929688	-324.2925109863282	725.2209472656251	-1093.021240234375	-318.5540161132813	735.9832763671876	-864.8743286132815	-453.1064758300782	877.656677246094	-986.4862060546877	-476.2402648925782	852.7084960937502	-1012.603271484375	-470.5260009765626	853.9064941406252	-954.063171386719	-369.3809204101563	638.2223510742189	-1175.845947265625	-288.1226501464844	617.5864868164064	-1178.4794921875	-258.5173034667969	653.9640502929689	-1163.602172851563	-264.7839965820313	562.6766357421876	-1183.578125	-154.7025146484375	439.7996215820314	-1162.513061523438	-180.385726928711	290.6122131347657	-1041.48193359375	-207.6910400390626	242.2668457031251	-1107.24951171875	-197.1984252929688	238.9474334716797	-1061.508178710938	-249.7893524169922	187.6890869140625	-1024.43603515625	-342.4491882324219	120.2565612792969	-1063.392822265625	-316.4439392089844	141.8408355712891	-976.315612792969	-207.7645263671876	64.09410095214845	-991.5838623046877	-209.6705932617188	60.42683792114259	-1036.488159179688	-258.9117431640626	49.49238967895509	-1080.299194335938	-407.5338745117189	581.5918579101564	-769.657653808594	-366.4271240234376	528.4640502929689	-769.1506347656252	-337.4797058105469	529.0883178710939	-783.4531860351565	-390.1738891601564	447.7153930664064	-764.2463378906251	-386.7172851562501	317.3287658691407	-784.3424072265627	-398.6077270507814	295.4159545898438	-914.8876953125002	-487.2231750488282	249.4284820556641	-785.0676879882815	-570.3066406250001	310.5991210937501	-741.8927001953126	-566.4276733398439	264.0216064453126	-749.9759521484376	-618.1614990234376	246.1230010986329	-774.906921386719	-769.699645996094	300.8009033203126	-732.5596313476564	-761.8206176757814	261.8016967773438	-816.804870605469	-793.581970214844	353.4001770019532	-791.151794433594	-850.9766845703127	152.4196472167969	-784.9805297851565	-846.722839355469	149.0713043212891	-738.2517089843751	-866.253601074219	208.0594787597657	-693.7397460937501	-118.2636871337891	451.7086181640626	-1039.807495117188	nan	nan	nan	
641	3.2	68.43746948242189	1359.740966796875	-1141.163452148438	-112.4917984008789	1345.093017578125	-1164.507690429688	-87.52952575683595	1346.767700195313	-1017.448974609375	-164.0263366699219	1210.125854492188	-1084.84765625	-357.9968566894532	989.3694458007815	-1021.491882324219	-63.16832351684572	1086.899780273438	-1110.004760742188	-120.3856735229492	1130.1767578125	-1258.75244140625	-98.7257995605469	980.4331665039065	-1362.959106445313	-49.74906158447267	995.6295166015627	-1361.41845703125	-45.05018997192384	937.9272460937502	-1377.567993164063	23.25444030761719	910.3751220703127	-1385.898315429688	3.325333118438722	860.763122558594	-1313.3740234375	214.3311614990235	973.4884033203127	-1224.4638671875	237.1425323486329	901.5963134765627	-1220.4228515625	306.1112060546876	965.9298095703127	-1217.786743164063	-52.45152664184572	1145.560424804688	-961.6160888671877	11.42717838287354	997.966003417969	-858.2241821289065	51.07186889648439	1006.67724609375	-885.0411376953127	61.53793716430665	950.0797119140627	-866.278503417969	126.6070251464844	917.5943603515627	-889.0944824218752	78.92575073242189	860.661804199219	-937.377624511719	nan	nan	nan	288.0682067871094	908.055847167969	-1098.315551757813	281.8239440917969	993.7829589843752	-1134.627685546875	-324.3692016601563	724.6251220703126	-1092.973022460938	-318.3228759765626	735.5021362304689	-864.820007324219	-452.8864746093751	877.2334594726565	-986.4013671875002	-476.1913146972657	852.282165527344	-1012.48388671875	-470.4017028808595	853.447937011719	-953.885925292969	-369.5586242675782	637.9281005859376	-1175.794189453125	-288.2077331542969	617.3602294921876	-1178.560791015625	-258.7012634277344	653.8201293945314	-1163.603759765625	-264.8189697265626	562.5020751953126	-1183.657104492188	-154.598129272461	439.7266845703126	-1162.672973632813	-180.2283630371094	290.5516662597657	-1041.744140625	-207.4091491699219	242.2415466308594	-1107.62158203125	-197.0416564941407	238.932357788086	-1061.911743164063	-249.7299346923829	187.6949920654297	-1024.445068359375	-342.4312133789063	120.2577133178711	-1063.447021484375	-316.3880004882813	141.8854522705078	-976.2620239257815	-207.9354553222657	64.09741210937501	-991.659362792969	-209.6930847167969	60.42018127441408	-1036.4736328125	-258.9202270507813	49.56389236450197	-1080.282470703125	-407.6482849121095	581.0958251953126	-769.5564575195315	-366.5910034179688	527.9148559570314	-769.263854980469	-337.7048645019532	528.3676757812501	-783.4102172851565	-390.1031799316407	446.9385681152345	-764.3211669921876	-386.8500976562501	316.9003601074219	-784.1135864257815	-398.7235717773439	294.7307739257813	-914.7798461914065	-487.8462219238282	248.9110412597657	-785.1152343750002	-570.7933959960939	310.0301208496094	-742.0739746093751	-566.8391723632814	263.3526916503907	-750.0446166992189	-618.5909423828126	245.6385955810547	-775.1885986328127	-770.1811523437502	300.3251342773438	-732.3700561523439	-762.3635864257814	261.4137573242188	-816.7789306640627	-793.990417480469	353.1241149902344	-791.135681152344	-850.7317504882815	151.3787689208985	-786.030212402344	-847.497985839844	148.7319946289063	-738.1663208007814	-866.9243774414065	207.6652832031251	-693.7566528320314	-118.172592163086	451.377410888672	-1039.988525390625	nan	nan	nan	
